<svg width="26" height="22" viewBox="0 0 26 22" fill="none" xmlns="http://www.w3.org/2000/svg">
<path d="M23.5625 3.45899H17.7531C16.5064 3.45899 15.2877 3.76191 14.2391 4.3334L13 5.00586L11.7609 4.3334C10.7133 3.76202 9.49324 3.45842 8.24687 3.45899H2.4375C1.98809 3.45899 1.625 3.76621 1.625 4.14649V16.3496C1.625 16.7299 1.98809 17.0371 2.4375 17.0371H8.24687C9.49355 17.0371 10.7123 17.34 11.7609 17.9115L12.8883 18.526C12.9213 18.5432 12.9594 18.5539 12.9975 18.5539C13.0355 18.5539 13.0736 18.5453 13.1066 18.526L14.234 17.9115C15.2852 17.34 16.5064 17.0371 17.7531 17.0371H23.5625C24.0119 17.0371 24.375 16.7299 24.375 16.3496V4.14649C24.375 3.76621 24.0119 3.45899 23.5625 3.45899ZM8.24687 15.4902H3.45312V5.00586H8.24687C9.1457 5.00586 10.0191 5.22285 10.7732 5.6332L12.0123 6.30566L12.1875 6.40234V16.3281C10.9789 15.7781 9.62813 15.4902 8.24687 15.4902ZM22.5469 15.4902H17.7531C16.3719 15.4902 15.0211 15.7781 13.8125 16.3281V6.40234L13.9877 6.30566L15.2268 5.6332C15.9809 5.22285 16.8543 5.00586 17.7531 5.00586H22.5469V15.4902ZM10.0775 7.75586H5.35996C5.26094 7.75586 5.17969 7.82891 5.17969 7.91699V8.88379C5.17969 8.97188 5.26094 9.04492 5.35996 9.04492H10.075C10.174 9.04492 10.2553 8.97188 10.2553 8.88379V7.91699C10.2578 7.82891 10.1766 7.75586 10.0775 7.75586ZM15.7422 7.91699V8.88379C15.7422 8.97188 15.8234 9.04492 15.9225 9.04492H20.6375C20.7365 9.04492 20.8178 8.97188 20.8178 8.88379V7.91699C20.8178 7.82891 20.7365 7.75586 20.6375 7.75586H15.9225C15.8234 7.75586 15.7422 7.82891 15.7422 7.91699ZM10.0775 10.7637H5.35996C5.26094 10.7637 5.17969 10.8367 5.17969 10.9248V11.8916C5.17969 11.9797 5.26094 12.0527 5.35996 12.0527H10.075C10.174 12.0527 10.2553 11.9797 10.2553 11.8916V10.9248C10.2578 10.8367 10.1766 10.7637 10.0775 10.7637ZM20.64 10.7637H15.9225C15.8234 10.7637 15.7422 10.8367 15.7422 10.9248V11.8916C15.7422 11.9797 15.8234 12.0527 15.9225 12.0527H20.6375C20.7365 12.0527 20.8178 11.9797 20.8178 11.8916V10.9248C20.8203 10.8367 20.7391 10.7637 20.64 10.7637Z" fill="#6FB2FB"/>
</svg>
